<svg width="100" height="80" viewBox="0 0 100 80" fill="none" xmlns="http://www.w3.org/2000/svg">
<path d="M62.4999 53.3333H74.9999C76.1805 53.3333 77.1701 53.0139 77.9687 52.375C78.7673 51.7361 79.1666 50.9444 79.1666 50V30C79.1666 29.0555 78.7673 28.2639 77.9687 27.625C77.1701 26.9861 76.1805 26.6666 74.9999 26.6666H62.4999C61.3194 26.6666 60.3298 26.9861 59.5312 27.625C58.7326 28.2639 58.3332 29.0555 58.3332 30V50C58.3332 50.9444 58.7326 51.7361 59.5312 52.375C60.3298 53.0139 61.3194 53.3333 62.4999 53.3333ZM66.6666 46.6666V33.3333H70.8332V46.6666H66.6666ZM37.4999 53.3333H49.9999C51.1805 53.3333 52.1701 53.0139 52.9687 52.375C53.7673 51.7361 54.1666 50.9444 54.1666 50V30C54.1666 29.0555 53.7673 28.2639 52.9687 27.625C52.1701 26.9861 51.1805 26.6666 49.9999 26.6666H37.4999C36.3194 26.6666 35.3298 26.9861 34.5312 27.625C33.7326 28.2639 33.3333 29.0555 33.3333 30V50C33.3333 50.9444 33.7326 51.7361 34.5312 52.375C35.3298 53.0139 36.3194 53.3333 37.4999 53.3333ZM41.6666 46.6666V33.3333H45.8332V46.6666H41.6666ZM20.8333 53.3333H29.1666V26.6666H20.8333V53.3333ZM8.33325 66.6666V13.3333H91.6666V66.6666H8.33325ZM16.6666 60H83.3332V20H16.6666V60Z" fill="#F07F23"/>
</svg>
