<svg width="210" height="80" viewBox="0 0 210 80" fill="none" xmlns="http://www.w3.org/2000/svg">
<path d="M62.5002 53.3333H75.0002C76.1807 53.3333 77.1703 53.0139 77.9689 52.375C78.7675 51.7361 79.1668 50.9444 79.1668 50V30C79.1668 29.0555 78.7675 28.2639 77.9689 27.625C77.1703 26.9861 76.1807 26.6666 75.0002 26.6666H62.5002C61.3196 26.6666 60.33 26.9861 59.5314 27.625C58.7328 28.2639 58.3335 29.0555 58.3335 30V50C58.3335 50.9444 58.7328 51.7361 59.5314 52.375C60.33 53.0139 61.3196 53.3333 62.5002 53.3333ZM66.6668 46.6666V33.3333H70.8335V46.6666H66.6668ZM37.5002 53.3333H50.0002C51.1807 53.3333 52.1703 53.0139 52.9689 52.375C53.7675 51.7361 54.1668 50.9444 54.1668 50V30C54.1668 29.0555 53.7675 28.2639 52.9689 27.625C52.1703 26.9861 51.1807 26.6666 50.0002 26.6666H37.5002C36.3196 26.6666 35.33 26.9861 34.5314 27.625C33.7328 28.2639 33.3335 29.0555 33.3335 30V50C33.3335 50.9444 33.7328 51.7361 34.5314 52.375C35.33 53.0139 36.3196 53.3333 37.5002 53.3333ZM41.6668 46.6666V33.3333H45.8335V46.6666H41.6668ZM20.8335 53.3333H29.1668V26.6666H20.8335V53.3333ZM8.3335 66.6666V13.3333H91.6668V66.6666H8.3335ZM16.6668 60H83.3335V20H16.6668V60Z" fill="#F07F23"/>
<path d="M172.5 53.3333H185C186.181 53.3333 187.17 53.0139 187.969 52.375C188.768 51.7361 189.167 50.9444 189.167 50V30C189.167 29.0555 188.768 28.2639 187.969 27.625C187.17 26.9861 186.181 26.6666 185 26.6666H172.5C171.32 26.6666 170.33 26.9861 169.531 27.625C168.733 28.2639 168.333 29.0555 168.333 30V50C168.333 50.9444 168.733 51.7361 169.531 52.375C170.33 53.0139 171.32 53.3333 172.5 53.3333ZM176.667 46.6666V33.3333H180.833V46.6666H176.667ZM147.5 53.3333H160C161.181 53.3333 162.17 53.0139 162.969 52.375C163.768 51.7361 164.167 50.9444 164.167 50V30C164.167 29.0555 163.768 28.2639 162.969 27.625C162.17 26.9861 161.181 26.6666 160 26.6666H147.5C146.32 26.6666 145.33 26.9861 144.531 27.625C143.733 28.2639 143.333 29.0555 143.333 30V50C143.333 50.9444 143.733 51.7361 144.531 52.375C145.33 53.0139 146.32 53.3333 147.5 53.3333ZM151.667 46.6666V33.3333H155.833V46.6666H151.667ZM130.833 53.3333H139.167V26.6666H130.833V53.3333ZM118.333 66.6666V13.3333H201.667V66.6666H118.333ZM126.667 60H193.333V20H126.667V60Z" fill="#F07F23"/>
</svg>
