<svg width="310" height="160" viewBox="0 0 310 160" fill="none" xmlns="http://www.w3.org/2000/svg">
<path d="M112.5 53.3333H125C126.181 53.3333 127.17 53.0139 127.969 52.375C128.768 51.7361 129.167 50.9444 129.167 50V30C129.167 29.0555 128.768 28.2639 127.969 27.625C127.17 26.9861 126.181 26.6666 125 26.6666H112.5C111.32 26.6666 110.33 26.9861 109.531 27.625C108.733 28.2639 108.333 29.0555 108.333 30V50C108.333 50.9444 108.733 51.7361 109.531 52.375C110.33 53.0139 111.32 53.3333 112.5 53.3333ZM116.667 46.6666V33.3333H120.833V46.6666H116.667ZM87.5002 53.3333H100C101.181 53.3333 102.17 53.0139 102.969 52.375C103.768 51.7361 104.167 50.9444 104.167 50V30C104.167 29.0555 103.768 28.2639 102.969 27.625C102.17 26.9861 101.181 26.6666 100 26.6666H87.5002C86.3196 26.6666 85.33 26.9861 84.5314 27.625C83.7328 28.2639 83.3335 29.0555 83.3335 30V50C83.3335 50.9444 83.7328 51.7361 84.5314 52.375C85.33 53.0139 86.3196 53.3333 87.5002 53.3333ZM91.6668 46.6666V33.3333H95.8335V46.6666H91.6668ZM70.8335 53.3333H79.1668V26.6666H70.8335V53.3333ZM58.3335 66.6666V13.3333H141.667V66.6666H58.3335ZM66.6668 60H133.333V20H66.6668V60Z" fill="#F07F23"/>
<path d="M222.5 53.3333H235C236.181 53.3333 237.17 53.0139 237.969 52.375C238.768 51.7361 239.167 50.9444 239.167 50V30C239.167 29.0555 238.768 28.2639 237.969 27.625C237.17 26.9861 236.181 26.6666 235 26.6666H222.5C221.32 26.6666 220.33 26.9861 219.531 27.625C218.733 28.2639 218.333 29.0555 218.333 30V50C218.333 50.9444 218.733 51.7361 219.531 52.375C220.33 53.0139 221.32 53.3333 222.5 53.3333ZM226.667 46.6666V33.3333H230.833V46.6666H226.667ZM197.5 53.3333H210C211.181 53.3333 212.17 53.0139 212.969 52.375C213.768 51.7361 214.167 50.9444 214.167 50V30C214.167 29.0555 213.768 28.2639 212.969 27.625C212.17 26.9861 211.181 26.6666 210 26.6666H197.5C196.32 26.6666 195.33 26.9861 194.531 27.625C193.733 28.2639 193.333 29.0555 193.333 30V50C193.333 50.9444 193.733 51.7361 194.531 52.375C195.33 53.0139 196.32 53.3333 197.5 53.3333ZM201.667 46.6666V33.3333H205.833V46.6666H201.667ZM180.833 53.3333H189.167V26.6666H180.833V53.3333ZM168.333 66.6666V13.3333H251.667V66.6666H168.333ZM176.667 60H243.333V20H176.667V60Z" fill="#F07F23"/>
<path d="M167.5 133.333H180C181.181 133.333 182.17 133.014 182.969 132.375C183.768 131.736 184.167 130.944 184.167 130V110C184.167 109.056 183.768 108.264 182.969 107.625C182.17 106.986 181.181 106.667 180 106.667H167.5C166.32 106.667 165.33 106.986 164.531 107.625C163.733 108.264 163.333 109.056 163.333 110V130C163.333 130.944 163.733 131.736 164.531 132.375C165.33 133.014 166.32 133.333 167.5 133.333ZM171.667 126.667V113.333H175.833V126.667H171.667ZM142.5 133.333H155C156.181 133.333 157.17 133.014 157.969 132.375C158.768 131.736 159.167 130.944 159.167 130V110C159.167 109.056 158.768 108.264 157.969 107.625C157.17 106.986 156.181 106.667 155 106.667H142.5C141.32 106.667 140.33 106.986 139.531 107.625C138.733 108.264 138.333 109.056 138.333 110V130C138.333 130.944 138.733 131.736 139.531 132.375C140.33 133.014 141.32 133.333 142.5 133.333ZM146.667 126.667V113.333H150.833V126.667H146.667ZM125.833 133.333H134.167V106.667H125.833V133.333ZM113.333 146.667V93.3333H196.667V146.667H113.333ZM121.667 140H188.333V100H121.667V140Z" fill="#F07F23"/>
</svg>
