<svg width="310" height="160" viewBox="0 0 310 160" fill="none" xmlns="http://www.w3.org/2000/svg">
<path d="M112.5 53.3333H125C126.181 53.3333 127.17 53.0139 127.969 52.375C128.768 51.7361 129.167 50.9444 129.167 50V30C129.167 29.0555 128.768 28.2639 127.969 27.625C127.17 26.9861 126.181 26.6666 125 26.6666H112.5C111.32 26.6666 110.33 26.9861 109.531 27.625C108.733 28.2639 108.333 29.0555 108.333 30V50C108.333 50.9444 108.733 51.7361 109.531 52.375C110.33 53.0139 111.32 53.3333 112.5 53.3333ZM116.667 46.6666V33.3333H120.833V46.6666H116.667ZM87.5002 53.3333H100C101.181 53.3333 102.17 53.0139 102.969 52.375C103.768 51.7361 104.167 50.9444 104.167 50V30C104.167 29.0555 103.768 28.2639 102.969 27.625C102.17 26.9861 101.181 26.6666 100 26.6666H87.5002C86.3196 26.6666 85.33 26.9861 84.5314 27.625C83.7328 28.2639 83.3335 29.0555 83.3335 30V50C83.3335 50.9444 83.7328 51.7361 84.5314 52.375C85.33 53.0139 86.3196 53.3333 87.5002 53.3333ZM91.6668 46.6666V33.3333H95.8335V46.6666H91.6668ZM70.8335 53.3333H79.1668V26.6666H70.8335V53.3333ZM58.3335 66.6666V13.3333H141.667V66.6666H58.3335ZM66.6668 60H133.333V20H66.6668V60Z" fill="#F07F23"/>
<path d="M222.5 53.3333H235C236.181 53.3333 237.17 53.0139 237.969 52.375C238.768 51.7361 239.167 50.9444 239.167 50V30C239.167 29.0555 238.768 28.2639 237.969 27.625C237.17 26.9861 236.181 26.6666 235 26.6666H222.5C221.32 26.6666 220.33 26.9861 219.531 27.625C218.733 28.2639 218.333 29.0555 218.333 30V50C218.333 50.9444 218.733 51.7361 219.531 52.375C220.33 53.0139 221.32 53.3333 222.5 53.3333ZM226.667 46.6666V33.3333H230.833V46.6666H226.667ZM197.5 53.3333H210C211.181 53.3333 212.17 53.0139 212.969 52.375C213.768 51.7361 214.167 50.9444 214.167 50V30C214.167 29.0555 213.768 28.2639 212.969 27.625C212.17 26.9861 211.181 26.6666 210 26.6666H197.5C196.32 26.6666 195.33 26.9861 194.531 27.625C193.733 28.2639 193.333 29.0555 193.333 30V50C193.333 50.9444 193.733 51.7361 194.531 52.375C195.33 53.0139 196.32 53.3333 197.5 53.3333ZM201.667 46.6666V33.3333H205.833V46.6666H201.667ZM180.833 53.3333H189.167V26.6666H180.833V53.3333ZM168.333 66.6666V13.3333H251.667V66.6666H168.333ZM176.667 60H243.333V20H176.667V60Z" fill="#F07F23"/>
<path d="M112.5 133.333H125C126.181 133.333 127.17 133.014 127.969 132.375C128.768 131.736 129.167 130.944 129.167 130V110C129.167 109.056 128.768 108.264 127.969 107.625C127.17 106.986 126.181 106.667 125 106.667H112.5C111.32 106.667 110.33 106.986 109.531 107.625C108.733 108.264 108.333 109.056 108.333 110V130C108.333 130.944 108.733 131.736 109.531 132.375C110.33 133.014 111.32 133.333 112.5 133.333ZM116.667 126.667V113.333H120.833V126.667H116.667ZM87.5002 133.333H100C101.181 133.333 102.17 133.014 102.969 132.375C103.768 131.736 104.167 130.944 104.167 130V110C104.167 109.056 103.768 108.264 102.969 107.625C102.17 106.986 101.181 106.667 100 106.667H87.5002C86.3196 106.667 85.33 106.986 84.5314 107.625C83.7328 108.264 83.3335 109.056 83.3335 110V130C83.3335 130.944 83.7328 131.736 84.5314 132.375C85.33 133.014 86.3196 133.333 87.5002 133.333ZM91.6668 126.667V113.333H95.8335V126.667H91.6668ZM70.8335 133.333H79.1668V106.667H70.8335V133.333ZM58.3335 146.667V93.3333H141.667V146.667H58.3335ZM66.6668 140H133.333V100H66.6668V140Z" fill="#F07F23"/>
<path d="M222.5 133.333H235C236.181 133.333 237.17 133.014 237.969 132.375C238.768 131.736 239.167 130.944 239.167 130V110C239.167 109.056 238.768 108.264 237.969 107.625C237.17 106.986 236.181 106.667 235 106.667H222.5C221.32 106.667 220.33 106.986 219.531 107.625C218.733 108.264 218.333 109.056 218.333 110V130C218.333 130.944 218.733 131.736 219.531 132.375C220.33 133.014 221.32 133.333 222.5 133.333ZM226.667 126.667V113.333H230.833V126.667H226.667ZM197.5 133.333H210C211.181 133.333 212.17 133.014 212.969 132.375C213.768 131.736 214.167 130.944 214.167 130V110C214.167 109.056 213.768 108.264 212.969 107.625C212.17 106.986 211.181 106.667 210 106.667H197.5C196.32 106.667 195.33 106.986 194.531 107.625C193.733 108.264 193.333 109.056 193.333 110V130C193.333 130.944 193.733 131.736 194.531 132.375C195.33 133.014 196.32 133.333 197.5 133.333ZM201.667 126.667V113.333H205.833V126.667H201.667ZM180.833 133.333H189.167V106.667H180.833V133.333ZM168.333 146.667V93.3333H251.667V146.667H168.333ZM176.667 140H243.333V100H176.667V140Z" fill="#F07F23"/>
</svg>
