<svg width="320" height="160" viewBox="0 0 320 160" fill="none" xmlns="http://www.w3.org/2000/svg">
<path d="M117.5 53.3333H130C131.18 53.3333 132.17 53.0139 132.968 52.375C133.767 51.7361 134.166 50.9444 134.166 50V30C134.166 29.0555 133.767 28.2639 132.968 27.625C132.17 26.9861 131.18 26.6666 130 26.6666H117.5C116.319 26.6666 115.33 26.9861 114.531 27.625C113.732 28.2639 113.333 29.0555 113.333 30V50C113.333 50.9444 113.732 51.7361 114.531 52.375C115.33 53.0139 116.319 53.3333 117.5 53.3333ZM121.666 46.6666V33.3333H125.833V46.6666H121.666ZM92.4997 53.3333H105C106.18 53.3333 107.17 53.0139 107.968 52.375C108.767 51.7361 109.166 50.9444 109.166 50V30C109.166 29.0555 108.767 28.2639 107.968 27.625C107.17 26.9861 106.18 26.6666 105 26.6666H92.4997C91.3191 26.6666 90.3295 26.9861 89.5309 27.625C88.7323 28.2639 88.333 29.0555 88.333 30V50C88.333 50.9444 88.7323 51.7361 89.5309 52.375C90.3295 53.0139 91.3191 53.3333 92.4997 53.3333ZM96.6663 46.6666V33.3333H100.833V46.6666H96.6663ZM75.833 53.3333H84.1663V26.6666H75.833V53.3333ZM63.333 66.6666V13.3333H146.666V66.6666H63.333ZM71.6663 60H138.333V20H71.6663V60Z" fill="#F07F23"/>
<path d="M227.5 53.3333H240C241.18 53.3333 242.17 53.0139 242.968 52.375C243.767 51.7361 244.166 50.9444 244.166 50V30C244.166 29.0555 243.767 28.2639 242.968 27.625C242.17 26.9861 241.18 26.6666 240 26.6666H227.5C226.319 26.6666 225.33 26.9861 224.531 27.625C223.732 28.2639 223.333 29.0555 223.333 30V50C223.333 50.9444 223.732 51.7361 224.531 52.375C225.33 53.0139 226.319 53.3333 227.5 53.3333ZM231.666 46.6666V33.3333H235.833V46.6666H231.666ZM202.5 53.3333H215C216.18 53.3333 217.17 53.0139 217.968 52.375C218.767 51.7361 219.166 50.9444 219.166 50V30C219.166 29.0555 218.767 28.2639 217.968 27.625C217.17 26.9861 216.18 26.6666 215 26.6666H202.5C201.319 26.6666 200.33 26.9861 199.531 27.625C198.732 28.2639 198.333 29.0555 198.333 30V50C198.333 50.9444 198.732 51.7361 199.531 52.375C200.33 53.0139 201.319 53.3333 202.5 53.3333ZM206.666 46.6666V33.3333H210.833V46.6666H206.666ZM185.833 53.3333H194.166V26.6666H185.833V53.3333ZM173.333 66.6666V13.3333H256.666V66.6666H173.333ZM181.666 60H248.333V20H181.666V60Z" fill="#F07F23"/>
<path d="M62.4997 133.333H74.9997C76.1802 133.333 77.1698 133.014 77.9684 132.375C78.767 131.736 79.1663 130.944 79.1663 130V110C79.1663 109.056 78.767 108.264 77.9684 107.625C77.1698 106.986 76.1802 106.667 74.9997 106.667H62.4997C61.3191 106.667 60.3295 106.986 59.5309 107.625C58.7323 108.264 58.333 109.056 58.333 110V130C58.333 130.944 58.7323 131.736 59.5309 132.375C60.3295 133.014 61.3191 133.333 62.4997 133.333ZM66.6663 126.667V113.333H70.833V126.667H66.6663ZM37.4997 133.333H49.9997C51.1802 133.333 52.1698 133.014 52.9684 132.375C53.767 131.736 54.1663 130.944 54.1663 130V110C54.1663 109.056 53.767 108.264 52.9684 107.625C52.1698 106.986 51.1802 106.667 49.9997 106.667H37.4997C36.3191 106.667 35.3295 106.986 34.5309 107.625C33.7323 108.264 33.333 109.056 33.333 110V130C33.333 130.944 33.7323 131.736 34.5309 132.375C35.3295 133.014 36.3191 133.333 37.4997 133.333ZM41.6663 126.667V113.333H45.833V126.667H41.6663ZM20.833 133.333H29.1663V106.667H20.833V133.333ZM8.33301 146.667V93.3333H91.6663V146.667H8.33301ZM16.6663 140H83.333V100H16.6663V140Z" fill="#F07F23"/>
<path d="M172.5 133.333H185C186.18 133.333 187.17 133.014 187.968 132.375C188.767 131.736 189.166 130.944 189.166 130V110C189.166 109.056 188.767 108.264 187.968 107.625C187.17 106.986 186.18 106.667 185 106.667H172.5C171.319 106.667 170.33 106.986 169.531 107.625C168.732 108.264 168.333 109.056 168.333 110V130C168.333 130.944 168.732 131.736 169.531 132.375C170.33 133.014 171.319 133.333 172.5 133.333ZM176.666 126.667V113.333H180.833V126.667H176.666ZM147.5 133.333H160C161.18 133.333 162.17 133.014 162.968 132.375C163.767 131.736 164.166 130.944 164.166 130V110C164.166 109.056 163.767 108.264 162.968 107.625C162.17 106.986 161.18 106.667 160 106.667H147.5C146.319 106.667 145.33 106.986 144.531 107.625C143.732 108.264 143.333 109.056 143.333 110V130C143.333 130.944 143.732 131.736 144.531 132.375C145.33 133.014 146.319 133.333 147.5 133.333ZM151.666 126.667V113.333H155.833V126.667H151.666ZM130.833 133.333H139.166V106.667H130.833V133.333ZM118.333 146.667V93.3333H201.666V146.667H118.333ZM126.666 140H193.333V100H126.666V140Z" fill="#F07F23"/>
<path d="M282.5 133.333H295C296.18 133.333 297.17 133.014 297.968 132.375C298.767 131.736 299.166 130.944 299.166 130V110C299.166 109.056 298.767 108.264 297.968 107.625C297.17 106.986 296.18 106.667 295 106.667H282.5C281.319 106.667 280.33 106.986 279.531 107.625C278.732 108.264 278.333 109.056 278.333 110V130C278.333 130.944 278.732 131.736 279.531 132.375C280.33 133.014 281.319 133.333 282.5 133.333ZM286.666 126.667V113.333H290.833V126.667H286.666ZM257.5 133.333H270C271.18 133.333 272.17 133.014 272.968 132.375C273.767 131.736 274.166 130.944 274.166 130V110C274.166 109.056 273.767 108.264 272.968 107.625C272.17 106.986 271.18 106.667 270 106.667H257.5C256.319 106.667 255.33 106.986 254.531 107.625C253.732 108.264 253.333 109.056 253.333 110V130C253.333 130.944 253.732 131.736 254.531 132.375C255.33 133.014 256.319 133.333 257.5 133.333ZM261.666 126.667V113.333H265.833V126.667H261.666ZM240.833 133.333H249.166V106.667H240.833V133.333ZM228.333 146.667V93.3333H311.666V146.667H228.333ZM236.666 140H303.333V100H236.666V140Z" fill="#F07F23"/>
</svg>
