<svg width="97" height="95" viewBox="0 0 97 95" fill="none" xmlns="http://www.w3.org/2000/svg">
<path d="M48.4997 87.0834C42.9087 87.0834 37.6545 86.0443 32.7372 83.9662C27.8198 81.888 23.5424 79.0677 19.9049 75.5052C16.2674 71.9427 13.3877 67.7535 11.2658 62.9375C9.14395 58.1215 8.08301 52.9757 8.08301 47.5C8.08301 42.0243 9.14395 36.8785 11.2658 32.0625C13.3877 27.2465 16.2674 23.0573 19.9049 19.4948C23.5424 15.9323 27.8198 13.112 32.7372 11.0339C37.6545 8.95575 42.9087 7.91669 48.4997 7.91669C54.0906 7.91669 59.3448 8.95575 64.2622 11.0339C69.1795 13.112 73.457 15.9323 77.0945 19.4948C80.732 23.0573 83.6117 27.2465 85.7335 32.0625C87.8554 36.8785 88.9163 42.0243 88.9163 47.5C88.9163 52.9757 87.8554 58.1215 85.7335 62.9375C83.6117 67.7535 80.732 71.9427 77.0945 75.5052C73.457 79.0677 69.1795 81.888 64.2622 83.9662C59.3448 86.0443 54.0906 87.0834 48.4997 87.0834ZM48.4997 79.1667C57.4587 79.1667 65.0873 76.0825 71.3856 69.9141C77.6839 63.7457 80.833 56.2743 80.833 47.5C80.833 38.7257 77.6839 31.2544 71.3856 25.086C65.0873 18.9176 57.4587 15.8334 48.4997 15.8334C39.5406 15.8334 31.912 18.9176 25.6137 25.086C19.3155 31.2544 16.1663 38.7257 16.1663 47.5C16.1663 56.2743 19.3155 63.7457 25.6137 69.9141C31.912 76.0825 39.5406 79.1667 48.4997 79.1667ZM54.5622 43.1459L56.583 41.9584C56.7177 43.5417 57.3577 44.8611 58.5028 45.9167C59.6479 46.9722 61.0288 47.5 62.6455 47.5C64.3295 47.5 65.761 46.9228 66.9398 45.7682C68.1186 44.6137 68.708 43.2118 68.708 41.5625C68.708 40.5729 68.4722 39.6328 68.0007 38.7422C67.5292 37.8516 66.8893 37.1424 66.0809 36.6146L68.708 35.1302L66.6872 31.6667L52.5413 39.5834L54.5622 43.1459ZM42.4372 43.1459L44.458 39.5834L30.3122 31.6667L28.2913 35.1302L30.9184 36.6146C30.1101 37.1424 29.4702 37.8516 28.9986 38.7422C28.5271 39.6328 28.2913 40.5729 28.2913 41.5625C28.2913 43.2118 28.8808 44.6137 30.0596 45.7682C31.2384 46.9228 32.6698 47.5 34.3538 47.5C35.9705 47.5 37.3514 46.9722 38.4965 45.9167C39.6417 44.8611 40.2816 43.5417 40.4163 41.9584L42.4372 43.1459ZM48.4997 51.4584C43.717 51.4584 39.507 52.9592 35.8695 55.961C32.232 58.9627 29.6722 62.7396 28.1903 67.2917H68.8091C67.3271 62.7396 64.7674 58.9627 61.1299 55.961C57.4924 52.9592 53.2823 51.4584 48.4997 51.4584Z" fill="#F07F23"/>
</svg>
