<svg width="104" height="117" viewBox="0 0 104 117" fill="none" xmlns="http://www.w3.org/2000/svg">
<path d="M100.347 56.8369H100.681L100.347 57.126V57.5215H99.8916L52.5527 98.6084L5.21387 57.5215H4.76074V57.1279L4.4248 56.8369H4.76074V0H100.347V56.8369Z" fill="#AD5600"/>
<path d="M52 117L0 69.3511H13.3418L52 104.774L90.6582 69.3511H104L52 117Z" fill="#AD5600"/>
<path d="M51.0265 61.5859C42.1788 61.5859 35.7335 56.3711 35.5577 49.0469H44.1124C44.2882 52.3867 47.3351 54.6133 51.0265 54.6133C55.421 54.6133 58.5265 51.5078 58.5265 47.1133C58.5265 42.6016 55.3624 39.4961 50.9093 39.4375C47.7452 39.4375 45.5187 40.6094 44.2296 43.0117H36.2609L38.546 18.5781H64.6788V25.7852H45.8116L44.6398 36.5078H44.9913C46.5734 34.3984 49.7374 32.9336 53.4874 32.9336C61.2804 32.9336 67.0812 38.7344 67.0812 46.8789C67.0812 55.4336 60.5773 61.5859 51.0265 61.5859Z" fill="white"/>
</svg>
