<svg width="84" height="75" viewBox="0 0 84 75" fill="none" xmlns="http://www.w3.org/2000/svg">
<path d="M12.5 75V66.6667H70.8333V75H12.5ZM12.5 60.4167L7.1875 26.9792C7.04861 26.9792 6.89236 26.9965 6.71875 27.0312C6.54514 27.066 6.38889 27.0833 6.25 27.0833C4.51389 27.0833 3.03819 26.4757 1.82292 25.2604C0.607639 24.0451 0 22.5694 0 20.8333C0 19.0972 0.607639 17.6215 1.82292 16.4062C3.03819 15.191 4.51389 14.5833 6.25 14.5833C7.98611 14.5833 9.4618 15.191 10.6771 16.4062C11.8924 17.6215 12.5 19.0972 12.5 20.8333C12.5 21.3194 12.4479 21.7708 12.3437 22.1875C12.2396 22.6042 12.1181 22.9861 11.9792 23.3333L25 29.1667L38.0208 11.3542C37.2569 10.7986 36.6319 10.0694 36.1458 9.16667C35.6597 8.26389 35.4167 7.29167 35.4167 6.25C35.4167 4.51389 36.0243 3.03819 37.2396 1.82292C38.4549 0.607639 39.9306 0 41.6667 0C43.4028 0 44.8785 0.607639 46.0937 1.82292C47.309 3.03819 47.9167 4.51389 47.9167 6.25C47.9167 7.29167 47.6736 8.26389 47.1875 9.16667C46.7014 10.0694 46.0764 10.7986 45.3125 11.3542L58.3333 29.1667L71.3542 23.3333C71.2153 22.9861 71.0937 22.6042 70.9896 22.1875C70.8854 21.7708 70.8333 21.3194 70.8333 20.8333C70.8333 19.0972 71.441 17.6215 72.6562 16.4062C73.8715 15.191 75.3472 14.5833 77.0833 14.5833C78.8194 14.5833 80.2951 15.191 81.5104 16.4062C82.7257 17.6215 83.3333 19.0972 83.3333 20.8333C83.3333 22.5694 82.7257 24.0451 81.5104 25.2604C80.2951 26.4757 78.8194 27.0833 77.0833 27.0833C76.9444 27.0833 76.7882 27.066 76.6146 27.0312C76.441 26.9965 76.2847 26.9792 76.1458 26.9792L70.8333 60.4167H12.5ZM19.5833 52.0833H63.75L66.4583 34.6875L55.5208 39.4792L41.6667 20.4167L27.8125 39.4792L16.875 34.6875L19.5833 52.0833Z" fill="#F07F23"/>
</svg>
