<svg width="120" height="100" viewBox="0 0 120 100" fill="none" xmlns="http://www.w3.org/2000/svg">
<path d="M11.915 70.9302L26.8088 57.0736L11.915 41.2791L20.4257 33.8469L33.5324 50.0969L48.7314 33.8469L57.2421 41.2791L41.2767 57.0736L57.2421 72.6744L48.7314 79.2636L33.5324 62.8876L20.4257 79.2636L11.915 70.9302ZM64.0324 79.2636V70.5136L89.0324 49.2636C91.7824 46.833 93.7199 44.8018 94.8449 43.1698C95.9699 41.5379 96.5324 39.6802 96.5324 37.5969C96.5324 35.583 95.5949 33.7601 93.7199 32.1282C91.8449 30.4962 89.0324 29.6802 85.2824 29.6802C82.2824 29.6802 79.8032 30.3747 77.8449 31.7636C75.8866 33.1525 74.5324 34.958 73.7824 37.1802L63.7824 33.8469C64.9491 30.7219 67.3657 27.7879 71.0324 25.0448C74.699 22.3018 79.5324 20.9302 85.5324 20.9302C92.449 20.9302 97.8449 22.5795 101.72 25.8782C105.595 29.1768 107.532 33.083 107.532 37.5969C107.532 40.7219 106.657 43.5691 104.907 46.1386C103.157 48.708 100.449 51.5552 96.7824 54.6802L78.5324 70.5136L78.7824 70.9302H108.532V79.2636H64.0324Z" fill="#F07F23"/>
</svg>
