<svg width="50" height="50" viewBox="0 0 50 50" fill="none" xmlns="http://www.w3.org/2000/svg">
<circle cx="25" cy="25" r="22.5" fill="#FFF2E4" stroke="#F07F23" stroke-width="5"/>
<path d="M45.168 25.198C45.129 28.8773 44.0848 32.4769 42.1468 35.613C40.2087 38.7491 37.4495 41.3041 34.1633 43.0055C30.8772 44.7069 27.1873 45.4909 23.4872 45.274C19.7871 45.057 16.2156 43.8471 13.1535 41.7734C10.0914 39.6998 7.65354 36.84 6.09991 33.4991C4.54628 30.1582 3.93513 26.4615 4.33165 22.8032C4.72817 19.1449 6.11748 15.6622 8.35142 12.7265C10.5854 9.79075 13.5802 7.5121 17.0165 6.13352L23.7215 26.4761L45.168 25.198Z" fill="#FDB882"/>
<path d="M33.0749 16.9398C33.5986 17.4203 31.9599 20.059 29.4146 22.8335C29.0479 23.2332 28.6811 23.613 28.3225 23.9705C28.0429 24.536 27.6207 25.1514 27.0813 25.7394C25.6929 27.2528 24.0618 28.0158 23.4382 27.4439C22.8147 26.8719 23.4347 25.1812 24.8231 23.6678C25.3625 23.0799 25.9388 22.6056 26.4781 22.2785C26.8034 21.8905 27.151 21.4929 27.5177 21.0932C30.0631 18.3188 32.5511 16.4593 33.0749 16.9398Z" fill="#F07F23"/>
</svg>
