<svg width="200" height="200" viewBox="0 0 200 200" fill="none" xmlns="http://www.w3.org/2000/svg">
<path d="M100 141.667C111.528 141.667 121.354 137.604 129.479 129.479C137.604 121.354 141.667 111.528 141.667 100C141.667 88.4723 137.604 78.6459 129.479 70.5209C121.354 62.3959 111.528 58.3334 100 58.3334C88.4725 58.3334 78.6462 62.3959 70.5212 70.5209C62.3962 78.6459 58.3337 88.4723 58.3337 100C58.3337 111.528 62.3962 121.354 70.5212 129.479C78.6462 137.604 88.4725 141.667 100 141.667ZM100 183.333C88.4725 183.333 77.6392 181.146 67.5003 176.771C57.3614 172.396 48.542 166.458 41.042 158.958C33.542 151.458 27.6045 142.639 23.2295 132.5C18.8545 122.361 16.667 111.528 16.667 100C16.667 88.4723 18.8545 77.639 23.2295 67.5001C27.6045 57.3612 33.542 48.5417 41.042 41.0417C48.542 33.5417 57.3614 27.6042 67.5003 23.2292C77.6392 18.8542 88.4725 16.6667 100 16.6667C111.528 16.6667 122.361 18.8542 132.5 23.2292C142.639 27.6042 151.459 33.5417 158.959 41.0417C166.459 48.5417 172.396 57.3612 176.771 67.5001C181.146 77.639 183.334 88.4723 183.334 100C183.334 111.528 181.146 122.361 176.771 132.5C172.396 142.639 166.459 151.458 158.959 158.958C151.459 166.458 142.639 172.396 132.5 176.771C122.361 181.146 111.528 183.333 100 183.333ZM100 166.667C118.611 166.667 134.375 160.208 147.292 147.292C160.209 134.375 166.667 118.611 166.667 100C166.667 81.389 160.209 65.6251 147.292 52.7084C134.375 39.7917 118.611 33.3334 100 33.3334C81.3892 33.3334 65.6253 39.7917 52.7087 52.7084C39.792 65.6251 33.3337 81.389 33.3337 100C33.3337 118.611 39.792 134.375 52.7087 147.292C65.6253 160.208 81.3892 166.667 100 166.667Z" fill="#6A6A6A"/>
</svg>
