<svg width="100" height="100" viewBox="0 0 100 100" fill="none" xmlns="http://www.w3.org/2000/svg">
<path d="M44.7917 47.9167L74.2708 18.4375C75.1042 17.6042 76.0764 17.1875 77.1875 17.1875C78.2986 17.1875 79.2708 17.6042 80.1042 18.4375C80.9375 19.2708 81.3542 20.2431 81.3542 21.3542C81.3542 22.4653 80.9375 23.4375 80.1042 24.2708L50.7292 53.75L44.7917 47.9167ZM55.1042 58.2292L81.5625 31.6667C82.3958 30.8333 83.3854 30.4167 84.5313 30.4167C85.6771 30.4167 86.6667 30.8333 87.5 31.6667C88.3333 32.5 88.75 33.4896 88.75 34.6354C88.75 35.7813 88.3333 36.7708 87.5 37.6042L61.0417 64.0625L55.1042 58.2292ZM21.9792 78.0208C15.6597 71.7014 12.5 64.0972 12.5 55.2083C12.5 46.3194 15.6597 38.7153 21.9792 32.3958L34.4792 19.8958L40.625 26.0417C41.1111 26.5278 41.5278 27.0313 41.875 27.5521C42.2222 28.0729 42.5694 28.6111 42.9167 29.1667L58.3333 13.6458C59.1667 12.8125 60.1563 12.3958 61.3021 12.3958C62.4479 12.3958 63.4375 12.8125 64.2708 13.6458C65.1042 14.4792 65.5208 15.4688 65.5208 16.6146C65.5208 17.7604 65.1042 18.75 64.2708 19.5833L46.25 37.6042L37.3958 46.3542L39.375 48.3333C42.5694 51.5278 44.0972 55.3472 43.9583 59.7917C43.8194 64.2361 42.1181 68.0903 38.8542 71.3542L32.9167 65.5208C34.5139 63.9236 35.3993 62.0313 35.5729 59.8438C35.7465 57.6563 35.0347 55.7639 33.4375 54.1667L28.5417 49.375C27.7083 48.5417 27.2917 47.5521 27.2917 46.4063C27.2917 45.2604 27.7083 44.2708 28.5417 43.4375L34.4792 37.6042C35.3125 36.7708 35.7292 35.7813 35.7292 34.6354C35.7292 33.4896 35.3125 32.5 34.4792 31.6667L27.8125 38.3333C23.0903 43.0556 20.7292 48.6979 20.7292 55.2604C20.7292 61.8229 23.0903 67.4653 27.8125 72.1875C32.5347 76.9097 38.1944 79.2708 44.7917 79.2708C51.3889 79.2708 57.0486 76.9097 61.7708 72.1875L86.6667 47.1875C87.5 46.3542 88.4896 45.9375 89.6354 45.9375C90.7813 45.9375 91.7708 46.3542 92.6042 47.1875C93.4375 48.0208 93.8542 49.0104 93.8542 50.1563C93.8542 51.3021 93.4375 52.2917 92.6042 53.125L67.6042 78.0208C61.2847 84.3403 53.6806 87.5 44.7917 87.5C35.9028 87.5 28.2986 84.3403 21.9792 78.0208ZM70.8333 95.9375V87.5C75.4167 87.5 79.3403 85.8681 82.6042 82.6042C85.8681 79.3403 87.5 75.4167 87.5 70.8333H95.9375C95.9375 77.7778 93.4896 83.6979 88.5938 88.5938C83.6979 93.4896 77.7778 95.9375 70.8333 95.9375ZM4.0625 29.1667C4.0625 22.2222 6.51042 16.3021 11.4063 11.4063C16.3021 6.51042 22.2222 4.0625 29.1667 4.0625V12.5C24.5833 12.5 20.6597 14.1319 17.3958 17.3958C14.1319 20.6597 12.5 24.5833 12.5 29.1667H4.0625Z" fill="#F07F23"/>
</svg>
